<svg width="1920" height="1080" xmlns="http://www.w3.org/2000/svg" xmlns:xlink="http://www.w3.org/1999/xlink" overflow="hidden"><defs><radialGradient cx="18288002" cy="-1" r="20982690" fx="18288000" fy="0" gradientUnits="userSpaceOnUse" spreadMethod="pad" id="fill0" gradientTransform="scale(0.000104987 0.000104987)"><stop offset="0" stop-color="#F8F9FA"/><stop offset="0.74" stop-color="#E9ECEF"/><stop offset="0.83" stop-color="#DEE2E6"/><stop offset="1" stop-color="#CED4DA"/></radialGradient></defs><g><rect x="0" y="0" width="1920" height="1080" fill="url(#fill0)"/><path d="M197 173.259C197 162.622 205.622 154 216.259 154L1850.74 154C1861.38 154 1870 162.622 1870 173.259L1870 1011.74C1870 1022.38 1861.38 1031 1850.74 1031L216.259 1031C205.622 1031 197 1022.38 197 1011.74Z" fill="#212529" fill-rule="evenodd"/><path d="M100 177.213C100 164.393 110.393 154 123.213 154L244.787 154C257.607 154 268 164.393 268 177.213L268 530.787C268 543.607 257.607 554 244.787 554L123.213 554C110.393 554 100 543.607 100 530.787Z" fill="#212529" fill-rule="evenodd"/><path d="M104.533 550.598C96.1147 540.27 97.6628 525.073 107.991 516.654L201.411 440.508C211.739 432.089 226.937 433.637 235.355 443.966L457.917 717.016C466.335 727.344 464.787 742.541 454.459 750.959L361.038 827.106C350.71 835.524 335.513 833.976 327.095 823.648Z" fill="#212529" fill-rule="evenodd"/><path d="M1226 96.2312C1226 86.1624 1234.16 78 1244.23 78L1801.77 78C1811.84 78 1820 86.1624 1820 96.2312L1820 156.769C1820 166.838 1811.84 175 1801.77 175L1244.23 175C1234.16 175 1226 166.838 1226 156.769Z" fill="#212529" fill-rule="evenodd"/></g></svg>